<svg xmlns="http://www.w3.org/2000/svg" width="846" height="287" viewBox="0 0 846 287" fill="none">
  <defs>
    <linearGradient id="g1" x1="0" x2="1" y1="0" y2="1">
      <stop offset="0" stop-color="#3056d3" />
      <stop offset="1" stop-color="#179bee" />
    </linearGradient>

    <!-- gentle background gradient -->
    <linearGradient id="bgGrad" x1="0" y1="0" x2="0" y2="1">
      <stop offset="0" stop-color="#fbfdff" stop-opacity="1" />
      <stop offset="1" stop-color="#f1f7ff" stop-opacity="1" />
    </linearGradient>

    <!-- gloss gradient for screens -->
    <linearGradient id="gloss" x1="0" x2="1" y1="0" y2="0">
      <stop offset="0" stop-color="#ffffff" stop-opacity="0.18" />
      <stop offset="0.6" stop-color="#ffffff" stop-opacity="0.06" />
      <stop offset="1" stop-color="#ffffff" stop-opacity="0" />
    </linearGradient>

    <!-- AI orb gradient -->
    <radialGradient id="aiGrad" cx="50%" cy="40%" r="50%">
      <stop offset="0" stop-color="#3056d3" stop-opacity="1" />
      <stop offset="1" stop-color="#179bee" stop-opacity="0.95" />
    </radialGradient>

    <!-- glow for AI orb -->
    <filter id="glow" x="-50%" y="-50%" width="200%" height="200%">
      <feGaussianBlur stdDeviation="6" result="g"/>
      <feColorMatrix in="g" type="matrix" values="0 0 0 0 0.486  0 0 0 0 0.361  0 0 0 0 1  0 0 0 0.6 0"/>
      <feBlend in="SourceGraphic" in2="g" mode="screen" />
    </filter>

    <!-- soft ambient shadow used for blurred ellipses -->
    <filter id="soft" x="-50%" y="-50%" width="200%" height="200%" color-interpolation-filters="sRGB">
      <feGaussianBlur in="SourceGraphic" stdDeviation="20" result="b"/>
      <feColorMatrix in="b" type="matrix" values="0 0 0 0 0  0 0 0 0 0  0 0 0 0 0  0 0 0 0.18 0"/>
      <feBlend in="SourceGraphic" in2="b" mode="normal"/>
    </filter>

    <!-- device drop shadow (crisper) retained for outlines -->
    <filter id="s" x="-20%" y="-20%" width="140%" height="140%">
      <feDropShadow dx="0" dy="8" stdDeviation="12" flood-color="#0b1b3a" flood-opacity="0.12"/>
    </filter>

    <!-- subtle inner shadow for screens -->
    <filter id="inner" x="-10%" y="-10%" width="120%" height="120%">
      <feOffset dx="0" dy="2" result="off"/>
      <feGaussianBlur in="off" stdDeviation="4" result="blur"/>
      <feComposite in="blur" in2="SourceGraphic" operator="out" result="innerBlur"/>
      <feColorMatrix in="innerBlur" type="matrix" values="0 0 0 0 0  0 0 0 0 0  0 0 0 0 0  0 0 0 0.12 0"/>
      <feComposite in="SourceGraphic" in2="innerBlur" operator="over"/>
    </filter>

    <clipPath id="r1"><rect x="0" y="0" width="846" height="287" rx="10" ry="10"/></clipPath>
  </defs>

  <!-- subtle background tint -->
  <rect width="846" height="287" fill="url(#bgGrad)"/>
  <g opacity="0.6" transform="translate(40,10)">
    <circle cx="320" cy="90" r="120" fill="url(#g1)" opacity="0.12"/>
    <circle cx="540" cy="150" r="160" fill="#d9e9ff" opacity="0.08"/>
  </g>

  <!-- ambient ground shadow beneath composition (soft) -->
  <g transform="translate(0,200)">
    <ellipse cx="170" cy="12" rx="120" ry="18" fill="#000" opacity="0.12" filter="url(#soft)" />
    <ellipse cx="420" cy="20" rx="180" ry="22" fill="#000" opacity="0.10" filter="url(#soft)" />
    <ellipse cx="600" cy="18" rx="130" ry="20" fill="#000" opacity="0.08" filter="url(#soft)" />
  </g>

  <!-- TV / large screen (tvos) -->
  <g transform="translate(460,35)">
    <!-- crisper device shadow close to object -->
    <ellipse cx="170" cy="205" rx="150" ry="20" fill="#000" opacity="0.12"/>
    <g filter="url(#s)">
      <rect x="0" y="0" width="340" height="180" rx="12" fill="#111827" />
      <rect x="8" y="12" width="324" height="156" rx="8" fill="#ffffff" opacity="0.03"/>
      <!-- screen content: simple tiles -->
      <g transform="translate(32,30)" filter="url(#inner)">
        <rect width="260" height="120" rx="8" fill="#0b1220" opacity="0.35"/>
        <rect x="12" y="8" width="236" height="104" rx="6" fill="url(#gloss)" opacity="0.06" />
        <g transform="translate(12,12)" fill="#ffffff" opacity="0.95">
          <rect width="48" height="32" rx="6" fill="#3056d3" />
          <rect x="64" width="48" height="32" rx="6" fill="#3056d3" />
          <rect x="128" width="48" height="32" rx="6" fill="#3056d3" />
          <rect x="192" width="48" height="32" rx="6" fill="#9aa4d8" />

          <rect y="44" width="48" height="32" rx="6" fill="#6b7280" opacity="0.32" />
          <rect x="64" y="44" width="48" height="32" rx="6" fill="#6b7280" opacity="0.24" />
          <rect x="128" y="44" width="48" height="32" rx="6" fill="#6b7280" opacity="0.16" />
          <rect x="192" y="44" width="48" height="32" rx="6" fill="#6b7280" opacity="0.08" />
        </g>
      </g>
      <!-- stand -->
      <rect x="152" y="180" width="36" height="8" rx="3" fill="#111827" opacity="0.7" />
    </g>
  </g>

  <!-- Tablet / iPad -->
  <g transform="translate(290,40)">
    <ellipse cx="70" cy="235" rx="60" ry="10" fill="#000" opacity="0.12"/>
    <g filter="url(#s)">
      <rect x="0" y="0" width="140" height="200" rx="16" fill="#111827" />
      <rect x="8" y="10" width="124" height="180" rx="10" fill="#ffffff" opacity="0.03"/>
      <g filter="url(#inner)">
        <rect x="16" y="22" width="104" height="156" rx="8" fill="#0b1220" opacity="0.35"/>
        <rect x="28" y="32" width="80" height="136" rx="6" fill="url(#gloss)" opacity="0.06" />
      </g>
      <!-- app thumbnails -->
      <g transform="translate(28,36)" fill="#ffffff" opacity="0.95">
          <rect width="28" height="20" rx="5" fill="#3056d3" />
          <rect x="36" width="28" height="20" rx="5" fill="#3056d3" />
          <rect x="72" width="28" height="20" rx="5" fill="#3056d3" />
          <rect x="0" y="30" width="28" height="20" rx="5" fill="#9aa4d8" />
          <rect x="36" y="30" width="28" height="20" rx="5" fill="#9aa4d8" />
          <rect x="72" y="30" width="28" height="20" rx="5" fill="#9aa4d8" />
      </g>
    </g>
  </g>

  <!-- Phone / mobile apps -->
  <g transform="translate(100,35)">
    <ellipse cx="60" cy="255" rx="50" ry="12" fill="#000" opacity="0.12"/>
    <g filter="url(#s)">
      <rect x="0" y="0" width="120" height="220" rx="22" fill="#111827" />
      <rect x="8" y="14" width="104" height="192" rx="16" fill="#ffffff" opacity="0.03"/>
      <g filter="url(#inner)">
        <rect x="16" y="28" width="88" height="168" rx="12" fill="#0b1220" opacity="0.35"/>
        <rect x="24" y="36" width="64" height="152" rx="10" fill="url(#gloss)" opacity="0.06" />
      </g>

      <!-- small app icons -->
      <g transform="translate(28,44)" fill="#ffffff" opacity="0.95">
        <rect width="18" height="18" rx="4" fill="#3056d3" />
        <rect x="24" width="18" height="18" rx="4" fill="#3056d3" />
        <rect x="48" width="18" height="18" rx="4" fill="#3056d3" />
        <rect x="72" width="18" height="18" rx="4" fill="#3056d3" />

        <rect y="28" width="18" height="18" rx="4" fill="#9aa4d8" />
        <rect x="24" y="28" width="18" height="18" rx="4" fill="#9aa4d8" />
        <rect x="48" y="28" width="18" height="18" rx="4" fill="#9aa4d8" />
        <rect x="72" y="28" width="18" height="18" rx="4" fill="#9aa4d8" />

        <!-- content lines -->
        <rect x="0" y="64" width="76" height="6" rx="3" fill="#ffffff" opacity="0.12" />
        <rect x="0" y="76" width="52" height="6" rx="3" fill="#ffffff" opacity="0.08" />
      </g>
    </g>
  </g>

  <!-- Peripherals: keyboard + mouse (realistic, larger) -->
  <g transform="translate(120,210)">
    <!-- large softened shadow under keyboard+mouse -->
    <ellipse cx="180" cy="48" rx="200" ry="22" fill="#000" opacity="0.08" filter="url(#soft)" />

    <!-- Keyboard -->
    <g>
      <!-- keyboard base -->
      <rect x="0" y="0" width="360" height="64" rx="10" fill="#f8fbff" stroke="#e6eefc" stroke-width="1"/>
      <!-- small top bevel for subtle depth -->
      <rect x="0" y="0" width="360" height="8" rx="10" fill="#eef4ff" opacity="0.6"/>

      <!-- keys: 3 rows + spacebar -->
      <g transform="translate(14,14)">
        <!-- row 1 -->
        <g fill="#eaf2ff">
          <rect width="28" height="14" rx="3" />
          <rect x="36" width="28" height="14" rx="3" />
          <rect x="72" width="28" height="14" rx="3" />
          <rect x="108" width="28" height="14" rx="3" />
          <rect x="144" width="28" height="14" rx="3" />
          <rect x="180" width="28" height="14" rx="3" />
          <rect x="216" width="28" height="14" rx="3" />
          <rect x="252" width="28" height="14" rx="3" />
          <rect x="288" width="28" height="14" rx="3" />
        </g>

        <!-- row 2 -->
        <g transform="translate(0,18)" fill="#eaf2ff">
          <rect width="34" height="14" rx="3" />
          <rect x="40" width="34" height="14" rx="3" />
          <rect x="84" width="34" height="14" rx="3" />
          <rect x="128" width="34" height="14" rx="3" />
          <rect x="172" width="34" height="14" rx="3" />
          <rect x="216" width="34" height="14" rx="3" />
          <rect x="260" width="34" height="14" rx="3" />
        </g>

        <!-- spacebar row -->
        <g transform="translate(0,36)">
          <rect x="0" y="0" width="56" height="12" rx="3" fill="#eaf2ff" />
          <rect x="64" y="0" width="232" height="12" rx="3" fill="#eaf2ff" />
          <rect x="304" y="0" width="40" height="12" rx="3" fill="#eaf2ff" />
        </g>

        <!-- key legends (subtle) -->
        <g transform="translate(3,3)" fill="#9aa4d8" font-family="sans-serif" font-size="7" opacity="0.9">
          <text x="4" y="9">Q</text>
          <text x="40" y="9">W</text>
          <text x="76" y="9">E</text>
          <text x="112" y="9">R</text>
          <text x="148" y="9">T</text>
          <text x="184" y="9">Y</text>
          <text x="220" y="9">U</text>
          <text x="256" y="9">I</text>
          <text x="292" y="9">O</text>

          <text x="6" y="27">A</text>
          <text x="42" y="27">S</text>
          <text x="86" y="27">D</text>
          <text x="130" y="27">F</text>
          <text x="174" y="27">G</text>
          <text x="218" y="27">H</text>
          <text x="262" y="27">J</text>

          <text x="18" y="45">␣</text>
        </g>
      </g>
    </g>

    <!-- Mouse (to right of keyboard) -->
    <g transform="translate(392,10)">
      <!-- mouse shadow -->
      <ellipse cx="48" cy="46" rx="44" ry="10" fill="#000" opacity="0.08" filter="url(#soft)" />

      <!-- mouse body -->
      <rect x="0" y="0" width="96" height="56" rx="28" fill="#ffffff" stroke="#e6eefc" stroke-width="1"/>
      <!-- left/right button separation -->
      <path d="M48 6 v20" stroke="#e6eef8" stroke-width="2" stroke-linecap="round" opacity="0.9" />
      <!-- scroll wheel -->
      <rect x="44" y="28" width="8" height="6" rx="3" fill="#e6eef8" />
      <!-- subtle underside shadow to give curvature -->
      <ellipse cx="48" cy="44" rx="30" ry="6" fill="#000" opacity="0.04" />
    </g>
  </g>

  <!-- AI orb / badge -->
  <g transform="translate(560,18)">
    <!-- glow -->
    <circle cx="0" cy="0" r="28" fill="url(#aiGrad)" filter="url(#glow)" opacity="0.95" />
    <circle cx="0" cy="0" r="20" fill="url(#aiGrad)" stroke="#ffffff" stroke-opacity="0.12" />

  </g>

  <!-- dotted shapes carried from original to preserve look -->
  <g transform="translate(20,180)" opacity="0.18">
    <rect x="0" y="0" width="150" height="6" rx="3" fill="#3056d3"/>
    <rect x="180" y="20" width="120" height="6" rx="3" fill="#179bee"/>
    <rect x="360" y="40" width="90" height="6" rx="3" fill="#cfe8ff"/>
  </g>

  <!-- small gloss to match original tint -->
  <rect x="48" y="20" width="740" height="247" rx="10" fill="url(#g1)" opacity="0.02" />
</svg>
