<svg xmlns="http://www.w3.org/2000/svg" width="846" height="287" viewBox="0 0 846 287" fill="none">
  <defs>
    <linearGradient id="g1" x1="0" x2="1" y1="0" y2="1">
      <stop offset="0" stop-color="#3056d3" />
      <stop offset="1" stop-color="#179bee" />
    </linearGradient>

    <!-- gloss gradient for screens -->
    <linearGradient id="gloss" x1="0" x2="1" y1="0" y2="0">
      <stop offset="0" stop-color="#ffffff" stop-opacity="0.18" />
      <stop offset="0.6" stop-color="#ffffff" stop-opacity="0.06" />
      <stop offset="1" stop-color="#ffffff" stop-opacity="0" />
    </linearGradient>

    <!-- soft ambient shadow used for blurred ellipses -->
    <filter id="soft" x="-50%" y="-50%" width="200%" height="200%" color-interpolation-filters="sRGB">
      <feGaussianBlur in="SourceGraphic" stdDeviation="20" result="b"/>
      <feColorMatrix in="b" type="matrix" values="0 0 0 0 0  0 0 0 0 0  0 0 0 0 0  0 0 0 0.18 0"/>
      <feBlend in="SourceGraphic" in2="b" mode="normal"/>
    </filter>

    <!-- device drop shadow (crisper) retained for outlines -->
    <filter id="s" x="-20%" y="-20%" width="140%" height="140%">
      <feDropShadow dx="0" dy="8" stdDeviation="12" flood-color="#0b1b3a" flood-opacity="0.12"/>
    </filter>

    <!-- subtle inner shadow for screens -->
    <filter id="inner" x="-10%" y="-10%" width="120%" height="120%">
      <feOffset dx="0" dy="2" result="off"/>
      <feGaussianBlur in="off" stdDeviation="4" result="blur"/>
      <feComposite in="blur" in2="SourceGraphic" operator="out" result="innerBlur"/>
      <feColorMatrix in="innerBlur" type="matrix" values="0 0 0 0 0  0 0 0 0 0  0 0 0 0 0  0 0 0 0.12 0"/>
      <feComposite in="SourceGraphic" in2="innerBlur" operator="over"/>
    </filter>

    <clipPath id="r1"><rect x="0" y="0" width="846" height="287" rx="10" ry="10"/></clipPath>
  </defs>

  <!-- subtle background tint -->
  <rect width="846" height="287" fill="#f6f8ff"/>
  <g opacity="0.6" transform="translate(40,10)">
    <circle cx="320" cy="90" r="120" fill="url(#g1)" opacity="0.12"/>
    <circle cx="540" cy="150" r="160" fill="#d9e9ff" opacity="0.08"/>
  </g>

  <!-- ambient ground shadow beneath composition (soft) -->
  <g transform="translate(0,200)">
    <ellipse cx="170" cy="12" rx="120" ry="18" fill="#000" opacity="0.12" filter="url(#soft)" />
    <ellipse cx="420" cy="20" rx="180" ry="22" fill="#000" opacity="0.10" filter="url(#soft)" />
    <ellipse cx="600" cy="18" rx="130" ry="20" fill="#000" opacity="0.08" filter="url(#soft)" />
  </g>

  <!-- TV / large screen (tvos) -->
  <g transform="translate(460,35)">
    <!-- crisper device shadow close to object -->
    <ellipse cx="170" cy="205" rx="150" ry="20" fill="#000" opacity="0.12"/>
    <g filter="url(#s)">
      <rect x="0" y="0" width="340" height="180" rx="12" fill="#111827" />
      <rect x="8" y="12" width="324" height="156" rx="8" fill="#ffffff" opacity="0.03"/>
      <!-- screen content: simple tiles -->
      <g transform="translate(32,30)" filter="url(#inner)">
        <rect width="260" height="120" rx="8" fill="#0b1220" opacity="0.35"/>
        <rect x="12" y="8" width="236" height="104" rx="6" fill="url(#gloss)" opacity="0.06" />
        <g transform="translate(12,12)" fill="#ffffff" opacity="0.95">
          <rect width="48" height="32" rx="6" fill="#3056d3" />
          <rect x="64" width="48" height="32" rx="6" fill="#17c" />
          <rect x="128" width="48" height="32" rx="6" fill="#13c296" />
          <rect x="192" width="48" height="32" rx="6" fill="#ffb020" />

          <rect y="44" width="48" height="32" rx="6" fill="#6b7280" opacity="0.32" />
          <rect x="64" y="44" width="48" height="32" rx="6" fill="#6b7280" opacity="0.24" />
          <rect x="128" y="44" width="48" height="32" rx="6" fill="#6b7280" opacity="0.16" />
          <rect x="192" y="44" width="48" height="32" rx="6" fill="#6b7280" opacity="0.08" />
        </g>
      </g>
      <!-- stand -->
      <rect x="152" y="180" width="36" height="8" rx="3" fill="#111827" opacity="0.7" />
    </g>
  </g>

  <!-- Tablet / iPad -->
  <g transform="translate(290,40)">
    <ellipse cx="70" cy="235" rx="60" ry="10" fill="#000" opacity="0.12"/>
    <g filter="url(#s)">
      <rect x="0" y="0" width="140" height="200" rx="16" fill="#111827" />
      <rect x="8" y="10" width="124" height="180" rx="10" fill="#ffffff" opacity="0.03"/>
      <g filter="url(#inner)">
        <rect x="16" y="22" width="104" height="156" rx="8" fill="#0b1220" opacity="0.35"/>
        <rect x="28" y="32" width="80" height="136" rx="6" fill="url(#gloss)" opacity="0.06" />
      </g>
      <!-- app thumbnails -->
      <g transform="translate(28,36)" fill="#ffffff" opacity="0.95">
        <rect width="28" height="20" rx="5" fill="#3056d3" />
        <rect x="36" width="28" height="20" rx="5" fill="#17c" />
        <rect x="72" width="28" height="20" rx="5" fill="#13c296" />
        <rect x="0" y="30" width="28" height="20" rx="5" fill="#ffb020" />
        <rect x="36" y="30" width="28" height="20" rx="5" fill="#9aa4d8" opacity="0.9" />
        <rect x="72" y="30" width="28" height="20" rx="5" fill="#9aa4d8" opacity="0.6" />
      </g>
    </g>
  </g>

  <!-- Phone / mobile apps -->
  <g transform="translate(100,35)">
    <ellipse cx="60" cy="255" rx="50" ry="12" fill="#000" opacity="0.12"/>
    <g filter="url(#s)">
      <rect x="0" y="0" width="120" height="220" rx="22" fill="#111827" />
      <rect x="8" y="14" width="104" height="192" rx="16" fill="#ffffff" opacity="0.03"/>
      <g filter="url(#inner)">
        <rect x="16" y="28" width="88" height="168" rx="12" fill="#0b1220" opacity="0.35"/>
        <rect x="24" y="36" width="64" height="152" rx="10" fill="url(#gloss)" opacity="0.06" />
      </g>

      <!-- small app icons -->
      <g transform="translate(28,44)" fill="#ffffff" opacity="0.95">
        <rect width="18" height="18" rx="4" fill="#3056d3" />
        <rect x="24" width="18" height="18" rx="4" fill="#17c" />
        <rect x="48" width="18" height="18" rx="4" fill="#13c296" />
        <rect x="72" width="18" height="18" rx="4" fill="#ffb020" />

        <rect y="28" width="18" height="18" rx="4" fill="#9aa4d8" opacity="0.9" />
        <rect x="24" y="28" width="18" height="18" rx="4" fill="#9aa4d8" opacity="0.6" />
        <rect x="48" y="28" width="18" height="18" rx="4" fill="#9aa4d8" opacity="0.45" />
        <rect x="72" y="28" width="18" height="18" rx="4" fill="#9aa4d8" opacity="0.3" />

        <!-- content lines -->
        <rect x="0" y="64" width="76" height="6" rx="3" fill="#ffffff" opacity="0.12" />
        <rect x="0" y="76" width="52" height="6" rx="3" fill="#ffffff" opacity="0.08" />
      </g>
    </g>
  </g>

  <!-- dotted shapes carried from original to preserve look -->
  <g transform="translate(20,180)" opacity="0.18">
    <rect x="0" y="0" width="150" height="6" rx="3" fill="#3056d3"/>
    <rect x="180" y="20" width="120" height="6" rx="3" fill="#179bee"/>
    <rect x="360" y="40" width="90" height="6" rx="3" fill="#cfe8ff"/>
  </g>

  <!-- small gloss to match original tint -->
  <rect x="48" y="20" width="740" height="247" rx="10" fill="url(#g1)" opacity="0.02" />
</svg>
