<?xml version="1.0" encoding="UTF-8" standalone="no"?>
<svg
   fill="none"
   height="40"
   viewBox="0 0 40 40"
   width="40"
   version="1.1"
   id="svg13"
   sodipodi:docname="favicon.svg"
   inkscape:version="1.1 (c4e8f9e, 2021-05-24)"
   xmlns:inkscape="http://www.inkscape.org/namespaces/inkscape"
   xmlns:sodipodi="http://sodipodi.sourceforge.net/DTD/sodipodi-0.dtd"
   xmlns="http://www.w3.org/2000/svg"
   xmlns:svg="http://www.w3.org/2000/svg">
  <defs
     id="defs17" />
  <sodipodi:namedview
     id="namedview15"
     pagecolor="#ffffff"
     bordercolor="#666666"
     borderopacity="1.0"
     inkscape:pageshadow="2"
     inkscape:pageopacity="0.0"
     inkscape:pagecheckerboard="0"
     showgrid="false"
     inkscape:zoom="14.675"
     inkscape:cx="22.350937"
     inkscape:cy="21.499148"
     inkscape:window-width="1312"
     inkscape:window-height="809"
     inkscape:window-x="0"
     inkscape:window-y="25"
     inkscape:window-maximized="0"
     inkscape:current-layer="svg13" />
  <path
     d="m20 40c11.0457 0 20-8.9543 20-20s-8.9543-20-20-20-20 8.9543-20 20 8.9543 20 20 20z"
     fill="#fff"
     id="path9" />
  <path
     clip-rule="evenodd"
     d="m 20.362275,14.582623 c -1.71175,-10e-7 -6.589963,-5.1525061 -6.533263,-3.527666 0.05445,1.5609 -1.788011,3.718986 -2.296941,5.367686 -0.51076,1.6533 -1.37397,2.701 -2.7842005,2.8355 v 1.5183 c 1.4102305,0.1348 2.2734405,1.1819 2.7841405,2.8355 0.50899,1.6487 4.57967,3.6704 4.52522,5.2314 -0.0567,1.6246 1.210159,3.151162 2.92194,3.1231 l 4.156595,-0.06814 c 1.71157,-0.02806 2.9782,-1.4983 2.9214,-3.1231 -0.0544,-1.561 4.0163,-3.5827 4.5253,-5.2314 0.5107,-1.6536 1.3718,-2.7012 2.7821,-2.8355 V 19.19 c -1.4102,-0.1348 -2.2713,-1.1819 -2.7821,-2.8355 -0.5091,-1.6485 -1.261132,-3.874929 -1.206732,-5.435829 0.0568,-1.6246303 -4.889328,3.663954 -6.601127,3.663953 z"
     fill="#3056d3"
     fill-rule="evenodd"
     id="path11"
     sodipodi:nodetypes="sccccccssccccccss"
     style="fill:#000000" />
  <text
     xml:space="preserve"
     style="font-style:normal;font-variant:normal;font-weight:normal;font-stretch:normal;font-size:21.3333px;line-height:1.25;font-family:Inter;-inkscape-font-specification:Inter;fill:#ffffff;fill-opacity:1;stroke:none"
     x="11.107326"
     y="31.482115"
     id="text773"><tspan
       sodipodi:role="line"
       id="tspan771"
       x="11.107326"
       y="31.482115">W</tspan></text>
</svg>
