<?xml version="1.0" encoding="UTF-8"?>
<svg xmlns="http://www.w3.org/2000/svg" width="64" height="64" viewBox="0 0 64 64" role="img" aria-label="Objective-C logo">
  <title>Objective-C</title>
  <rect x="2" y="2" width="60" height="60" rx="12" ry="12" fill="#0078A8"/>
  <g fill="#fff" transform="translate(8,8)">
    <!-- Outer O ring -->
    <path d="M24 0a12 12 0 1 0 0 24 12 12 0 0 0 0-24zm0 4a8 8 0 1 1 0 16 8 8 0 0 1 0-16z" />
    <!-- C letter to the right -->
    <path d="M40 6c-4.4 0-8 3.6-8 8s3.6 8 8 8c1.1 0 2-.9 2-2s-.9-2-2-2c-2.2 0-4-1.8-4-4s1.8-4 4-4c1.1 0 2-.9 2-2s-.9-2-2-2z" />
  </g>
</svg>
